<svg xmlns="http://www.w3.org/2000/svg" x="0px" y="0px"
width="30" height="30"
viewBox="0 0 172 172"
style=" fill:#000000;"><g fill="none" fill-rule="nonzero" stroke="none" stroke-width="1" stroke-linecap="butt" stroke-linejoin="miter" stroke-miterlimit="10" stroke-dasharray="" stroke-dashoffset="0" font-family="none" font-weight="none" font-size="none" text-anchor="none" style="mix-blend-mode: normal"><path d="M0,172v-172h172v172z" fill="none"></path><g fill="#000000"><path d="M54.13073,17.2c-31.2524,0.53893 -34.44622,22.21004 -28.17396,47.09844c-1.21547,0.69947 -3.21443,2.91979 -2.7099,6.86432c0.94027,7.35587 4.12925,9.21786 6.15885,9.37266c0.774,6.86853 8.1476,15.65272 10.7276,16.93125v11.46667c-5.73333,17.2 -40.13333,0 -40.13333,45.86667h68.8c0,-20.34187 11.40611,-29.10285 20.91771,-34.14245c-8.93253,-3.1304 -18.18291,-3.51982 -20.91771,-11.72422v-11.46667c2.58,-1.27853 9.94787,-10.05725 10.72761,-16.92005c0.45867,-1.62253 0.81745,-7.42717 0.81745,-8.73437c0,-7.16093 -0.10508,-21.96189 4.37839,-33.54896c-1.5652,-7.78587 -5.65665,-14.35224 -14.42292,-15.21797c-2.34493,-3.88147 -8.35526,-5.84531 -16.16979,-5.84531zM126.8388,22.93333c-6.44427,0 -11.42188,5.73333 -11.42188,5.73333c-36.93413,0 -16.43066,62.79917 -27.27812,71.82344c0,0 5.76746,8.54401 26.52786,8.54401v7.31224c-5.73333,15.52013 -34.4,9.78698 -34.4,38.45364h91.73333c0,-28.66667 -28.66667,-22.93351 -34.4,-38.45364v-7.37943c20.8636,0 25.69922,-8.26406 25.69922,-8.26406c-11.6788,-9.58613 8.69532,-77.76953 -36.46042,-77.76953z"></path></g></g></svg>