<svg xmlns="http://www.w3.org/2000/svg" x="0px" y="0px"
width="48" height="48"
viewBox="0 0 172 172"
style=" fill:#000000;"><g fill="none" fill-rule="nonzero" stroke="none" stroke-width="1" stroke-linecap="butt" stroke-linejoin="miter" stroke-miterlimit="10" stroke-dasharray="" stroke-dashoffset="0" font-family="none" font-weight="none" font-size="none" text-anchor="none" style="mix-blend-mode: normal"><path d="M0,172v-172h172v172z" fill="none"></path><g><path d="M168.41667,68.08333h-5.375c-0.71667,0 -1.43333,0 -2.15,0c-10.03333,0 -16.125,-1.79167 -20.06667,-2.86667c1.79167,-6.09167 6.80833,-17.55833 13.61667,-26.51667l3.58333,-4.65833l-5.73333,-1.075c-3.58333,-0.35833 -6.80833,-0.71667 -10.39167,-0.71667c-8.24167,0 -16.48333,0.71667 -21.14167,2.15c-0.35833,-4.65833 -2.50833,-13.61667 -2.50833,-23.65v-3.58333h-3.58333c-8.95833,0 -22.575,10.03333 -28.30833,14.33333c-6.09167,-5.73333 -20.06667,-18.275 -28.66667,-18.275l-0.35833,0.35833h-3.58333v3.58333c0,11.10833 -1.79167,20.425 -2.86667,25.08333c-5.375,-0.35833 -16.125,0 -27.95,-2.50833l-5.01667,-1.075l0.71667,5.01667c2.50833,15.40833 7.88333,26.51667 11.46667,32.25c-5.73333,1.79167 -12.9,6.09167 -22.93333,13.61667l-3.58333,3.225l3.94167,2.86667c5.73333,3.94167 9.675,6.80833 12.9,8.95833c3.58333,2.15 3.58333,3.58333 6.45,6.09167c-7.88333,7.16667 -14.33333,11.10833 -14.69167,11.10833l-4.65833,2.86667l5.01667,3.225l16.125,9.31667c-0.35833,2.15 -1.43333,5.73333 -2.50833,13.975l-1.075,5.73333c0,0 21.5,-3.58333 32.25,-10.75h57.33333c3.225,1.43333 14.33333,10.75 24.36667,10.75h4.3l-1.075,-4.3c-1.43333,-6.09167 -2.15,-9.675 -2.50833,-11.825c5.01667,-3.225 19.35,-12.18333 22.93333,-19.70833l2.15,-3.58333l-3.94167,-1.075c-3.94167,-1.075 -9.31667,-3.58333 -12.18333,-5.73333c5.01667,-4.65833 12.9,-14.69167 17.91667,-27.23333z" fill="#81d4fa"></path><path d="M125.41667,100.33333c-7.91608,0 -14.33333,6.41725 -14.33333,14.33333c0,7.91608 6.41725,14.33333 14.33333,14.33333c7.91608,0 14.33333,-6.41725 14.33333,-14.33333c0,-7.91608 -6.41725,-14.33333 -14.33333,-14.33333zM46.58333,100.33333c-7.91608,0 -14.33333,6.41725 -14.33333,14.33333c0,7.91608 6.41725,14.33333 14.33333,14.33333c7.91608,0 14.33333,-6.41725 14.33333,-14.33333c0,-7.91608 -6.41725,-14.33333 -14.33333,-14.33333z" fill="#bcaaa4"></path><path d="M86,39.41667c-21.85833,0 -39.41667,19.35 -39.41667,47.3v34.04167c0,28.30833 17.55833,47.65833 39.41667,47.65833c21.85833,0 39.41667,-19.35 39.41667,-47.3v-34.04167c0,-28.30833 -17.55833,-47.65833 -39.41667,-47.65833z" fill="#d7ccc8"></path><path d="M89.94167,132.58333h-18.99167h-2.86667v3.225c0,4.3 1.79167,8.95833 5.73333,9.675c0.35833,4.3 2.50833,8.6 6.80833,8.6c4.3,0 6.45,-4.3 7.16667,-8.6c2.50833,-0.71667 5.375,-3.225 5.375,-9.675v-3.225z" fill="#43a047"></path><path d="M60.91667,139.75c-1.43333,0 -2.86667,-1.075 -3.225,-2.50833c-0.71667,-1.79167 0.35833,-3.94167 2.15,-4.65833c0.35833,0 11.46667,-3.94167 26.15833,-3.94167c14.69167,0 25.8,3.58333 26.15833,3.94167c1.79167,0.71667 2.86667,2.50833 2.15,4.65833c-0.71667,1.79167 -2.50833,2.86667 -4.65833,2.15c0,0 -10.39167,-3.225 -24.00833,-3.225c-13.61667,0 -24.00833,3.225 -24.00833,3.225c0,0.35833 -0.35833,0.35833 -0.71667,0.35833z" fill="#8d6e63"></path><path d="M78.83333,93.16667v16.125c0,3.94167 0.35833,16.125 7.16667,16.125c6.80833,0 7.16667,-12.18333 7.16667,-16.125v-16.125z" fill="#efebe9"></path><path d="M102.125,75.25c-8.90559,0 -16.125,7.21941 -16.125,16.125c0,8.90559 7.21941,16.125 16.125,16.125c8.90559,0 16.125,-7.21941 16.125,-16.125c0,-8.90559 -7.21941,-16.125 -16.125,-16.125z" fill="#fafafa"></path><path d="M69.875,75.25c-8.90559,0 -16.125,7.21941 -16.125,16.125c0,8.90559 7.21941,16.125 16.125,16.125c8.90559,0 16.125,-7.21941 16.125,-16.125c0,-8.90559 -7.21941,-16.125 -16.125,-16.125z" fill="#fafafa"></path><g fill="#212121"><path d="M103.91667,86c-1.97902,0 -3.58333,1.60431 -3.58333,3.58333c0,1.97902 1.60431,3.58333 3.58333,3.58333c1.97902,0 3.58333,-1.60431 3.58333,-3.58333c0,-1.97902 -1.60431,-3.58333 -3.58333,-3.58333zM68.08333,89.58333c-1.97902,0 -3.58333,1.60431 -3.58333,3.58333c0,1.97902 1.60431,3.58333 3.58333,3.58333c1.97902,0 3.58333,-1.60431 3.58333,-3.58333c0,-1.97902 -1.60431,-3.58333 -3.58333,-3.58333z"></path></g><g fill="#64b5f6"><path d="M86,78.83333c-5.01667,0 -9.31667,-1.075 -13.25833,-2.15c-1.79167,-0.35833 -3.94167,-1.075 -5.375,-1.075c-5.73333,-0.71667 -9.31667,0 -9.31667,0c-1.79167,0.35833 -3.94167,-0.71667 -4.3,-2.50833c-0.35833,-1.79167 0.71667,-3.58333 2.50833,-4.3c0.35833,0 5.01667,-1.075 12.18333,0c1.79167,0.35833 3.94167,0.71667 6.09167,1.43333c3.58333,1.075 7.16667,1.79167 11.10833,1.79167c3.94167,0 7.525,-1.075 11.10833,-1.79167c2.15,-0.71667 4.3,-1.075 6.09167,-1.43333c7.16667,-1.075 11.825,0 12.18333,0c1.79167,0.35833 3.225,2.15 2.50833,4.3c-0.35833,1.79167 -2.50833,2.86667 -4.3,2.50833c0,0 -3.58333,-0.71667 -9.31667,0c-1.43333,0.35833 -3.225,0.71667 -5.375,1.075c-3.225,1.075 -7.525,2.15 -12.54167,2.15z"></path></g></g></g></svg>